<svg width="314" height="369" viewBox="0 0 314 369" fill="none" xmlns="http://www.w3.org/2000/svg">
<path d="M58.4719 348.672C58.9505 348.795 59.5338 348.915 60.1819 348.969L60.7125 349.41L61.2479 349.243C61.7435 349.446 62.2142 349.603 62.6165 349.727C63.8056 350.094 65.0997 350.373 66.2722 350.588C67.4597 350.806 68.6198 350.976 69.5557 351.108C69.8235 351.146 70.061 351.179 70.2713 351.208C70.8676 351.291 71.2445 351.343 71.4693 351.385C72.6409 351.6 73.7629 352.012 75.3287 352.586C75.4379 352.626 75.5493 352.667 75.663 352.709C77.2659 353.296 79.3385 354.037 81.6715 354.299C83.2443 354.476 84.7775 354.971 86.6109 355.697C87.048 355.871 87.5275 356.069 88.0379 356.279C89.4834 356.876 91.1763 357.574 92.8542 358.103C94.4599 358.609 96.0634 359.19 97.7636 359.81L98.0496 359.914C99.6371 360.494 101.314 361.106 103.022 361.661C108.974 363.594 114.756 363.537 120.041 363.486C120.474 363.482 120.903 363.477 121.328 363.474C138.53 363.351 153.583 354.214 166.487 346.154C175.28 340.663 183.989 335.074 192.681 329.486C197.647 326.294 202.844 323.425 208.193 320.52C208.755 320.215 209.319 319.909 209.884 319.603C214.659 317.013 219.547 314.363 224.302 311.477C229.501 308.32 234.946 305.252 240.473 302.138C253.521 294.786 267.022 287.179 278.803 277.554C288.746 269.431 294.323 258.237 298.817 247.506C306.428 229.334 309.445 211.562 309.498 191.981C309.55 172.888 308.36 153.457 304.626 134.496C302.082 121.58 297.197 108.817 292.66 97.0614C291.756 94.7213 290.858 92.3598 289.955 89.9847C283.462 72.9057 276.702 55.1273 265.778 39.5862C254.678 23.7943 238.337 6.2099 216.066 4.69758C199.767 3.59071 183.707 7.36163 168.77 10.8689C168.235 10.9943 167.703 11.1194 167.171 11.244C153.27 14.502 139.13 18.0645 125.407 22.6737C91.7332 33.9845 60.3953 52.0643 37.522 80.6688C30.4149 89.5566 25.2257 98.1819 21.5251 109.201C16.8053 123.255 13.815 138.065 10.9497 152.257C10.8249 152.875 10.7004 153.491 10.576 154.107C5.18124 180.793 3.98644 207.293 4.91412 234.258C5.82183 260.642 8.91898 288.256 21.8108 312.694C28.6681 325.692 37.9719 336.925 50.7605 344.855C50.8576 344.916 50.9809 344.994 51.1266 345.086C51.9573 345.612 53.5188 346.6 55.1424 347.396C56.1084 347.87 57.265 348.363 58.4719 348.672Z" stroke="black" stroke-width="9" stroke-linecap="round"/>
</svg>
