<svg width="312" height="105" viewBox="0 0 312 105" fill="none" xmlns="http://www.w3.org/2000/svg">
<rect width="77.349" height="13.3869" transform="matrix(0.999982 -0.00597948 0.00584062 0.999983 53.7439 3.81995)" fill="#1E1E1E"/>
<path d="M233.679 2.74397L304.333 2.32149C308.03 2.29938 311.044 5.27817 311.066 8.9748V8.9748C311.087 12.6714 308.108 15.6861 304.412 15.7082L233.757 16.1306L233.679 2.74397Z" fill="#1E1E1E"/>
<path d="M0.0364401 9.14117C0.020461 6.37979 2.24604 4.12774 5.00742 4.11107L104.923 3.50804C107.684 3.49137 109.935 5.7164 109.951 8.47778L110.214 53.8787C110.374 81.4925 88.1182 104.013 60.5044 104.18L50.5876 104.24C22.9739 104.406 0.45895 82.1559 0.299159 54.5421L0.0364401 9.14117Z" fill="#1E1E1E"/>
<path d="M12.3211 21.3392C12.3049 18.5779 14.5304 16.3259 17.2918 16.3094L93.5956 15.8532C96.357 15.8367 98.6086 18.0618 98.6247 20.8232L98.7985 50.5662C98.9275 72.6572 81.1238 90.6726 59.0328 90.8047L52.7277 90.8424C30.6367 90.9745 12.6238 73.1733 12.4948 51.0822L12.3211 21.3392Z" fill="url(#paint0_linear_1_50)"/>
<path d="M127.05 8.3817C127.034 5.62032 129.259 3.3684 132.021 3.35189L231.936 2.75444C234.697 2.73793 236.949 4.96308 236.965 7.72446L237.23 53.1255C237.392 80.7392 215.137 103.258 187.523 103.424L177.606 103.483C149.993 103.648 127.476 81.3964 127.315 53.7827L127.05 8.3817Z" fill="#1E1E1E"/>
<path d="M139.334 20.5798C139.318 17.8184 141.543 15.5665 144.305 15.55L220.609 15.0937C223.37 15.0772 225.622 17.3023 225.638 20.0637L225.812 49.8067C225.941 71.8977 208.137 89.9131 186.046 90.0452L179.741 90.0829C157.65 90.215 139.637 72.4138 139.508 50.3228L139.334 20.5798Z" fill="url(#paint1_linear_1_50)"/>
<path d="M244.038 14.3776L244.037 5.97754L248.417 5.97813L248.417 7.41813L245.681 7.41776L245.681 9.51777L248.057 9.51809L248.057 10.9101L245.681 10.9098L245.682 14.3778L244.038 14.3776ZM249.112 14.3782L249.111 5.97822L253.419 5.9788L253.419 7.4188L250.755 7.41845L250.755 9.42245L253.131 9.42277L253.132 10.8148L250.756 10.8145L250.756 12.9865L253.468 12.9868L253.468 14.3788L249.112 14.3782ZM255.047 5.97902L257.927 5.97941L257.927 7.41941L255.623 7.4191L255.587 7.4911L257.508 10.9954C257.9 11.6994 258.096 12.2354 258.096 12.6034C258.096 13.4114 257.828 14.0034 257.292 14.3793L254.112 14.3789L254.112 12.9869L256.596 12.9872L256.632 12.9152L254.471 9.03895C254.159 8.4789 254.003 8.02288 254.003 7.67088C254.003 6.83888 254.351 6.27493 255.047 5.97902ZM258.584 14.3795L260.995 7.41982L258.475 7.41948L258.475 5.97948L262.759 5.98006L262.759 7.09606L260.276 14.3797L258.584 14.3795Z" fill="white"/>
<defs>
<linearGradient id="paint0_linear_1_50" x1="55.4437" y1="16.0813" x2="55.8906" y2="90.8235" gradientUnits="userSpaceOnUse">
<stop stop-color="#CDA1FA"/>
<stop offset="1" stop-color="#CDA1FA" stop-opacity="0"/>
</linearGradient>
<linearGradient id="paint1_linear_1_50" x1="182.457" y1="15.3218" x2="182.904" y2="90.064" gradientUnits="userSpaceOnUse">
<stop stop-color="#CDA1FA"/>
<stop offset="1" stop-color="#CDA1FA" stop-opacity="0"/>
</linearGradient>
</defs>
</svg>
